<svg class="animated" id="freepik_stories-heavy-box" xmlns="http://www.w3.org/2000/svg" viewBox="0 0 500 500" version="1.1" xmlns:xlink="http://www.w3.org/1999/xlink" xmlns:svgjs="http://svgjs.com/svgjs"><style>svg#freepik_stories-heavy-box:not(.animated) .animable {opacity: 0;}svg#freepik_stories-heavy-box.animated #freepik--Floor--inject-144 {animation: 1s 1 forwards cubic-bezier(.36,-0.01,.5,1.38) fadeIn,1.5s Infinite  linear wind;animation-delay: 0s,1s;}svg#freepik_stories-heavy-box.animated #freepik--Bricks--inject-144 {animation: 1s 1 forwards cubic-bezier(.36,-0.01,.5,1.38) fadeIn;animation-delay: 0s;}svg#freepik_stories-heavy-box.animated #freepik--Shadows--inject-144 {animation: 1s 1 forwards cubic-bezier(.36,-0.01,.5,1.38) fadeIn;animation-delay: 0s;}svg#freepik_stories-heavy-box.animated #freepik--Boxes--inject-144 {animation: 1s 1 forwards cubic-bezier(.36,-0.01,.5,1.38) fadeIn;animation-delay: 0s;}svg#freepik_stories-heavy-box.animated #freepik--Character--inject-144 {animation: 1s 1 forwards cubic-bezier(.36,-0.01,.5,1.38) fadeIn;animation-delay: 0s;}            @keyframes fadeIn {                0% {                    opacity: 0;                }                100% {                    opacity: 1;                }            }                    @keyframes wind {                0% {                    transform: rotate( 0deg );                }                25% {                    transform: rotate( 1deg );                }                75% {                    transform: rotate( -1deg );                }            }        </style><g id="freepik--Floor--inject-144" class="animable" style="transform-origin: 250.006px 341.655px;"><path d="M417.11,244.54c-92.9-53.64-243-53.64-335.31,0S-10,385.13,82.88,438.77s243,53.64,335.33,0S510,298.17,417.11,244.54Z" style="fill: rgb(245, 245, 245); transform-origin: 250.006px 341.655px;" id="eluki4t6n8mb" class="animable"></path></g><g id="freepik--Bricks--inject-144" class="animable" style="transform-origin: 279.18px 163.657px;"><path d="M103.08,148c.55-.32,1-.07,1,.57l0,6.14a2.19,2.19,0,0,1-1,1.72l-16.18,9.35c-.55.31-1,.06-1-.57l0-6.14a2.21,2.21,0,0,1,1-1.73Z" style="fill: rgb(240, 240, 240); transform-origin: 94.99px 156.887px;" id="elvmgpjaq7sn" class="animable"></path><path d="M103.08,169.12c.55-.32,1-.06,1,.57l0,6.14a2.21,2.21,0,0,1-1,1.73L86.92,186.9c-.55.32-1,.07-1-.57l0-6.14a2.21,2.21,0,0,1,1-1.73Z" style="fill: rgb(240, 240, 240); transform-origin: 95px 178.011px;" id="elnhw4l76iy78" class="animable"></path><path d="M113.84,152.25c.55-.32,1-.06,1,.57l0,6.14a2.21,2.21,0,0,1-1,1.73L97.68,170c-.55.32-1,.07-1-.57v-6.14a2.17,2.17,0,0,1,1-1.73Z" style="fill: rgb(240, 240, 240); transform-origin: 105.76px 161.126px;" id="eltejc7mhoq7q" class="animable"></path><path d="M172.78,71.15c.55-.32,1-.07,1,.57v6.14a2.14,2.14,0,0,1-1,1.72l-16.19,9.35c-.55.32-1,.06-1-.57l0-6.14a2.21,2.21,0,0,1,1-1.73Z" style="fill: rgb(240, 240, 240); transform-origin: 164.685px 80.0391px;" id="elb07u08f5jfl" class="animable"></path><path d="M172.78,92.23c.55-.31,1-.06,1,.57v6.14a2.17,2.17,0,0,1-1,1.73L156.62,110c-.55.32-1,.07-1-.57l0-6.14a2.19,2.19,0,0,1,1-1.72Z" style="fill: rgb(240, 240, 240); transform-origin: 164.7px 101.118px;" id="eljsg90xoaao" class="animable"></path><path d="M163.18,87.26c.55-.32,1-.07,1,.57l0,6.14a2.19,2.19,0,0,1-1,1.72L147,105c-.55.31-1,.06-1-.57V98.33a2.2,2.2,0,0,1,1-1.73Z" style="fill: rgb(240, 240, 240); transform-origin: 155.09px 96.1269px;" id="elalxfs7nvccw" class="animable"></path><path d="M183.54,75.36c.55-.31,1-.06,1,.57l0,6.14a2.21,2.21,0,0,1-1,1.73l-16.18,9.34c-.55.32-1,.07-1-.57l0-6.14a2.19,2.19,0,0,1,1-1.72Z" style="fill: rgb(240, 240, 240); transform-origin: 175.45px 84.2531px;" id="eluhtjc85z74" class="animable"></path><path d="M418,73.85c-.55-.32-1-.07-1,.57l0,6.14a2.19,2.19,0,0,0,1,1.72l16.18,9.35c.55.31,1,.06,1-.58V84.92a2.17,2.17,0,0,0-1-1.73Z" style="fill: rgb(240, 240, 240); transform-origin: 426.09px 82.7368px;" id="ely5m48ks6ja" class="animable"></path><path d="M418,94.93c-.55-.32-1-.06-1,.57l0,6.14a2.21,2.21,0,0,0,1,1.73l16.18,9.34c.55.32,1,.06,1-.57V106a2.17,2.17,0,0,0-1-1.73Z" style="fill: rgb(240, 240, 240); transform-origin: 426.09px 103.82px;" id="elejioaw7cgr" class="animable"></path><path d="M427.61,90c-.55-.32-1-.07-1,.57l0,6.14a2.19,2.19,0,0,0,1,1.72l16.18,9.35c.55.31,1,.06,1-.58l0-6.13a2.21,2.21,0,0,0-1-1.73Z" style="fill: rgb(240, 240, 240); transform-origin: 435.7px 98.8868px;" id="el05jvmqw0yea4" class="animable"></path><path d="M407.25,78.06c-.55-.32-1-.06-1,.57v6.14a2.17,2.17,0,0,0,1,1.73l16.19,9.34c.55.32,1,.06,1-.57l0-6.14a2.21,2.21,0,0,0-1-1.73Z" style="fill: rgb(240, 240, 240); transform-origin: 415.345px 86.95px;" id="elk27wei5guef" class="animable"></path><path d="M445.66,217.3c-.55-.31-1-.06-1,.58l0,6.13a2.21,2.21,0,0,0,1,1.73l16.18,9.34c.55.32,1,.07,1-.57l0-6.14a2.19,2.19,0,0,0-1-1.72Z" style="fill: rgb(240, 240, 240); transform-origin: 453.75px 226.193px;" id="el27vtiy5hdd0j" class="animable"></path><path d="M445.66,238.39c-.55-.32-1-.07-1,.57l0,6.14a2.19,2.19,0,0,0,1,1.72l16.18,9.35c.55.31,1,.06,1-.58l0-6.13a2.21,2.21,0,0,0-1-1.73Z" style="fill: rgb(240, 240, 240); transform-origin: 453.75px 247.277px;" id="elfhrs3iixakg" class="animable"></path><path d="M455.27,233.41c-.55-.31-1-.06-1,.58v6.13a2.17,2.17,0,0,0,1,1.73l16.19,9.34c.55.32,1,.07,1-.57l0-6.14a2.19,2.19,0,0,0-1-1.72Z" style="fill: rgb(240, 240, 240); transform-origin: 463.365px 242.303px;" id="eluabxplwv3xn" class="animable"></path></g><g id="freepik--Shadows--inject-144" class="animable" style="transform-origin: 253.775px 335.77px;"><path d="M267.76,240.5l-65.53-37.84a5.47,5.47,0,0,0-5.49,0l-65.08,37.82a2.73,2.73,0,0,0,0,4.73l65.53,37.84a5.47,5.47,0,0,0,5.49,0l65.08-37.82A2.73,2.73,0,0,0,267.76,240.5Z" style="fill: rgb(230, 230, 230); transform-origin: 199.71px 242.855px;" id="el722jovxlxl9" class="animable"></path><path d="M169.89,296l-65.54-37.84a5.47,5.47,0,0,0-5.49,0L33.79,295.94a2.74,2.74,0,0,0,0,4.74l65.53,37.83a5.49,5.49,0,0,0,5.49,0l65.07-37.82A2.74,2.74,0,0,0,169.89,296Z" style="fill: rgb(230, 230, 230); transform-origin: 101.816px 298.333px;" id="el6cs7z5fuxor" class="animable"></path><path d="M191.74,395.34,126.21,357.5a5.47,5.47,0,0,0-5.49,0L55.64,395.32a2.74,2.74,0,0,0,0,4.74l65.54,37.84a5.47,5.47,0,0,0,5.49,0l65.07-37.82A2.73,2.73,0,0,0,191.74,395.34Z" style="fill: rgb(230, 230, 230); transform-origin: 123.695px 397.7px;" id="el4bktm4lltvp" class="animable"></path><path d="M292.82,426.33l-65.54-37.84a5.47,5.47,0,0,0-5.48,0l-65.08,37.82a2.74,2.74,0,0,0,0,4.74l65.53,37.83a5.47,5.47,0,0,0,5.49,0l65.08-37.82A2.74,2.74,0,0,0,292.82,426.33Z" style="fill: rgb(230, 230, 230); transform-origin: 224.766px 428.686px;" id="elhj22hvgj1dj" class="animable"></path><path d="M449.15,328.71c-34.47-19.91-90.18-19.91-124.43,0s-34.07,52.17.4,72.07,90.19,19.9,124.44,0S483.62,348.61,449.15,328.71Z" style="fill: rgb(230, 230, 230); transform-origin: 387.138px 364.741px;" id="elt28onlhjpi9" class="animable"></path></g><g id="freepik--Boxes--inject-144" class="animable" style="transform-origin: 163.305px 306.605px;"><polygon points="264.7 184.07 231.48 164.76 225.32 161.19 225.32 161.19 199.84 146.38 134.57 184.07 134.74 243.31 199.59 280.99 264.87 243.31 264.7 184.07" style="fill: rgb(55, 71, 79); transform-origin: 199.72px 213.685px;" id="el2jya4u45k1o" class="animable"></polygon><polygon points="134.57 184.07 199.84 146.38 264.7 184.07 199.42 221.76 134.57 184.07" style="fill: rgb(69, 90, 100); transform-origin: 199.635px 184.07px;" id="ellhy25hjly3h" class="animable"></polygon><polygon points="199.42 221.76 199.59 280.99 134.74 243.31 134.57 184.07 199.42 221.76" style="fill: rgb(69, 90, 100); transform-origin: 167.08px 232.53px;" id="elgojbf2elkum" class="animable"></polygon><polygon points="264.7 184.07 264.87 243.31 199.59 280.99 199.42 221.76 264.7 184.07" style="fill: rgb(69, 90, 100); transform-origin: 232.145px 232.53px;" id="elna303y4koyh" class="animable"></polygon><g id="elh3k746oz2gw"><polygon points="134.57 184.07 199.84 146.38 264.7 184.07 199.42 221.76 134.57 184.07" style="fill: rgb(255, 255, 255); opacity: 0.2; transform-origin: 199.635px 184.07px;" class="animable"></polygon></g><g id="elmt30hzy0ye"><polygon points="264.7 184.07 264.87 243.31 199.59 280.99 199.42 221.76 264.7 184.07" style="opacity: 0.1; transform-origin: 232.145px 232.53px;" class="animable"></polygon></g><g id="ela24yvasmq9t"><polygon points="225.32 161.19 237.95 168.53 172.68 206.22 160.05 198.88 225.32 161.19" style="fill: rgb(255, 255, 255); opacity: 0.3; transform-origin: 199px 183.705px;" class="animable"></polygon></g><g id="elilo9yi94tna"><polygon points="160.05 221.76 172.68 229.1 172.68 206.22 160.05 198.88 160.05 221.76" style="fill: rgb(255, 255, 255); opacity: 0.3; transform-origin: 166.365px 213.99px;" class="animable"></polygon></g><g id="elq41msbi2gop"><polygon points="160.05 257.97 172.68 265.31 172.68 250.2 160.05 242.86 160.05 257.97" style="fill: rgb(255, 255, 255); opacity: 0.3; transform-origin: 166.365px 254.085px;" class="animable"></polygon></g><g id="elk7xl6gpqq4d"><polygon points="213.31 209.13 199.67 201.26 186.13 209.13 199.76 217.01 213.31 209.13" style="fill: rgb(255, 255, 255); opacity: 0.4; transform-origin: 199.72px 209.135px;" class="animable"></polygon></g><polygon points="101.71 201.84 76.23 216.64 76.23 216.64 73.46 218.25 36.86 239.52 36.69 298.76 101.97 336.45 166.82 298.76 166.99 239.52 101.71 201.84" style="fill: rgb(55, 71, 79); transform-origin: 101.84px 269.145px;" id="elojy9m7lsdu" class="animable"></polygon><polygon points="166.99 239.52 101.71 201.84 36.86 239.52 102.14 277.21 166.99 239.52" style="fill: rgb(69, 90, 100); transform-origin: 101.925px 239.525px;" id="elzsjio8ygc7q" class="animable"></polygon><polygon points="102.14 277.21 101.97 336.45 166.82 298.76 166.99 239.52 102.14 277.21" style="fill: rgb(69, 90, 100); transform-origin: 134.48px 287.985px;" id="elfup7mu68te" class="animable"></polygon><polygon points="36.86 239.52 36.69 298.76 101.97 336.45 102.14 277.21 36.86 239.52" style="fill: rgb(69, 90, 100); transform-origin: 69.415px 287.985px;" id="eldadct7a6v9q" class="animable"></polygon><g id="elc6ja43nyp7j"><polygon points="166.99 239.52 101.71 201.84 36.86 239.52 102.14 277.21 166.99 239.52" style="fill: rgb(255, 255, 255); opacity: 0.4; transform-origin: 101.925px 239.525px;" class="animable"></polygon></g><g id="eljwuqjsm2l3f"><polygon points="36.86 239.52 36.69 298.76 101.97 336.45 102.14 277.21 36.86 239.52" style="fill: rgb(255, 255, 255); opacity: 0.3; transform-origin: 69.415px 287.985px;" class="animable"></polygon></g><g id="el5olq2c151uc"><polygon points="76.23 216.64 63.6 223.98 128.88 261.67 141.51 254.33 76.23 216.64" style="fill: rgb(255, 255, 255); opacity: 0.3; transform-origin: 102.555px 239.155px;" class="animable"></polygon></g><g id="elb81ol84m0dn"><polygon points="141.51 277.21 128.88 284.55 128.88 261.67 141.51 254.33 141.51 277.21" style="fill: rgb(255, 255, 255); opacity: 0.3; transform-origin: 135.195px 269.44px;" class="animable"></polygon></g><g id="eleq9tbqyo1x9"><polygon points="141.51 313.42 128.88 320.76 128.88 305.65 141.51 298.31 141.51 313.42" style="fill: rgb(255, 255, 255); opacity: 0.3; transform-origin: 135.195px 309.535px;" class="animable"></polygon></g><polygon points="127.21 201.47 107.6 190.07 101.58 186.57 101.58 186.57 84.99 176.93 42.5 201.47 42.61 240.02 84.83 264.56 127.32 240.03 127.21 201.47" style="fill: rgb(0, 22, 255); transform-origin: 84.91px 220.745px;" id="elhget1d7n7tb" class="animable"></polygon><polygon points="42.5 201.47 84.99 176.93 127.21 201.47 84.72 226 42.5 201.47" style="fill: rgb(0, 22, 255); transform-origin: 84.855px 201.465px;" id="ely21ipyd5vpq" class="animable"></polygon><polygon points="84.72 226 84.83 264.56 42.61 240.02 42.5 201.47 84.72 226" style="fill: rgb(0, 22, 255); transform-origin: 63.665px 233.015px;" id="elcupciiqdmxl" class="animable"></polygon><polygon points="127.21 201.47 127.32 240.03 84.83 264.56 84.72 226 127.21 201.47" style="fill: rgb(0, 22, 255); transform-origin: 106.02px 233.015px;" id="elnhw39w1hvc9" class="animable"></polygon><g id="el8p5qwlpw729"><polygon points="42.5 201.47 84.99 176.93 127.21 201.47 84.72 226 42.5 201.47" style="fill: rgb(255, 255, 255); opacity: 0.4; transform-origin: 84.855px 201.465px;" class="animable"></polygon></g><g id="elexycj3u2e4r"><polygon points="84.72 226 84.83 264.56 42.61 240.02 42.5 201.47 84.72 226" style="fill: rgb(255, 255, 255); opacity: 0.1; transform-origin: 63.665px 233.015px;" class="animable"></polygon></g><g id="elv5pvr851era"><polygon points="127.21 201.47 127.32 240.03 84.83 264.56 84.72 226 127.21 201.47" style="fill: rgb(255, 255, 255); opacity: 0.3; transform-origin: 106.02px 233.015px;" class="animable"></polygon></g><g id="el8kiv34pigq8"><polygon points="101.58 186.57 109.8 191.35 67.31 215.88 59.09 211.1 101.58 186.57" style="fill: rgb(255, 255, 255); opacity: 0.3; transform-origin: 84.445px 201.225px;" class="animable"></polygon></g><g id="ely81lq8gci7c"><polygon points="59.09 226 67.31 230.78 67.31 215.88 59.09 211.1 59.09 226" style="fill: rgb(255, 255, 255); opacity: 0.3; transform-origin: 63.2px 220.94px;" class="animable"></polygon></g><g id="eldl16dbbzwyt"><polygon points="59.09 249.57 67.31 254.35 67.31 244.51 59.09 239.74 59.09 249.57" style="fill: rgb(255, 255, 255); opacity: 0.3; transform-origin: 63.2px 247.045px;" class="animable"></polygon></g><g id="elvkjbeblbf5"><polygon points="120.83 201.18 111.96 196.06 103.14 201.18 112.02 206.31 120.83 201.18" style="fill: rgb(255, 255, 255); opacity: 0.4; transform-origin: 111.985px 201.185px;" class="animable"></polygon></g><polygon points="188.68 338.91 154.75 319.19 149.31 316.03 149.3 316.03 123.83 301.22 58.55 338.91 58.72 398.14 123.57 435.83 188.85 398.14 188.68 338.91" style="fill: rgb(0, 22, 255); transform-origin: 123.7px 368.525px;" id="elgkvogvbue8o" class="animable"></polygon><polygon points="58.55 338.91 123.83 301.22 188.68 338.91 123.4 376.6 58.55 338.91" style="fill: rgb(0, 22, 255); transform-origin: 123.615px 338.91px;" id="elbwhah1a419i" class="animable"></polygon><polygon points="123.4 376.6 123.57 435.83 58.72 398.14 58.55 338.91 123.4 376.6" style="fill: rgb(0, 22, 255); transform-origin: 91.06px 387.37px;" id="el0rs015cem64i" class="animable"></polygon><polygon points="188.68 338.91 188.85 398.14 123.57 435.83 123.4 376.6 188.68 338.91" style="fill: rgb(0, 22, 255); transform-origin: 156.125px 387.37px;" id="elkye29ncht9k" class="animable"></polygon><g id="el7yuru33qxp"><polygon points="58.55 338.91 123.83 301.22 188.68 338.91 123.4 376.6 58.55 338.91" style="fill: rgb(255, 255, 255); opacity: 0.2; transform-origin: 123.615px 338.91px;" class="animable"></polygon></g><g id="eljygntm8hbts"><polygon points="188.68 338.91 188.85 398.14 123.57 435.83 123.4 376.6 188.68 338.91" style="opacity: 0.1; transform-origin: 156.125px 387.37px;" class="animable"></polygon></g><g id="elzdrhcvlumhk"><polygon points="149.31 316.03 161.93 323.37 96.66 361.06 84.03 353.72 149.31 316.03" style="fill: rgb(255, 255, 255); opacity: 0.3; transform-origin: 122.98px 338.545px;" class="animable"></polygon></g><g id="elwknk0kt9noa"><polygon points="84.03 376.6 96.66 383.94 96.66 361.06 84.03 353.72 84.03 376.6" style="fill: rgb(255, 255, 255); opacity: 0.3; transform-origin: 90.345px 368.83px;" class="animable"></polygon></g><g id="elykm8h4h8mn"><polygon points="84.03 412.81 96.66 420.15 96.66 405.04 84.03 397.7 84.03 412.81" style="fill: rgb(255, 255, 255); opacity: 0.3; transform-origin: 90.345px 408.925px;" class="animable"></polygon></g><g id="ellyvjr9t95jj"><polygon points="94.97 337.8 81.34 329.93 67.79 337.8 81.43 345.67 94.97 337.8" style="fill: rgb(255, 255, 255); opacity: 0.4; transform-origin: 81.38px 337.8px;" class="animable"></polygon></g><polygon points="224.65 332.22 199.17 347.02 199.17 347.02 193.72 350.19 159.79 369.9 159.62 429.14 224.9 466.83 289.75 429.14 289.92 369.9 224.65 332.22" style="fill: rgb(0, 22, 255); transform-origin: 224.77px 399.525px;" id="elgwippd7ws6i" class="animable"></polygon><polygon points="289.92 369.9 224.65 332.22 159.79 369.9 225.07 407.59 289.92 369.9" style="fill: rgb(0, 22, 255); transform-origin: 224.855px 369.905px;" id="elo34hd1q1oa" class="animable"></polygon><polygon points="225.07 407.59 224.9 466.83 289.75 429.14 289.92 369.9 225.07 407.59" style="fill: rgb(0, 22, 255); transform-origin: 257.41px 418.365px;" id="ele2c92pq3vd6" class="animable"></polygon><polygon points="159.79 369.9 159.62 429.14 224.9 466.83 225.07 407.59 159.79 369.9" style="fill: rgb(0, 22, 255); transform-origin: 192.345px 418.365px;" id="elx5a22up7iwl" class="animable"></polygon><g id="el9jvc7dnecul"><polygon points="289.92 369.9 224.65 332.22 159.79 369.9 225.07 407.59 289.92 369.9" style="fill: rgb(255, 255, 255); opacity: 0.2; transform-origin: 224.855px 369.905px;" class="animable"></polygon></g><g id="elom8c1a078eg"><polygon points="159.79 369.9 159.62 429.14 224.9 466.83 225.07 407.59 159.79 369.9" style="fill: rgb(255, 255, 255); opacity: 0.1; transform-origin: 192.345px 418.365px;" class="animable"></polygon></g><g id="el5vtpzhay88f"><polygon points="199.17 347.02 186.54 354.36 251.81 392.05 264.44 384.71 199.17 347.02" style="fill: rgb(255, 255, 255); opacity: 0.3; transform-origin: 225.49px 369.535px;" class="animable"></polygon></g><g id="elctqq45g5br7"><polygon points="264.44 407.59 251.81 414.93 251.81 392.05 264.44 384.71 264.44 407.59" style="fill: rgb(255, 255, 255); opacity: 0.3; transform-origin: 258.125px 399.82px;" class="animable"></polygon></g><g id="elxgs2l2agkm"><polygon points="264.44 443.81 251.81 451.14 251.81 436.03 264.44 428.69 264.44 443.81" style="fill: rgb(255, 255, 255); opacity: 0.3; transform-origin: 258.125px 439.915px;" class="animable"></polygon></g><polygon points="224.67 292.42 204.46 304.17 204.46 304.17 198.29 307.75 173.21 322.32 173.08 369.32 224.88 399.23 276.33 369.32 276.47 322.32 224.67 292.42" style="fill: rgb(55, 71, 79); transform-origin: 224.775px 345.825px;" id="el07qvo01lmyai" class="animable"></polygon><polygon points="276.47 322.32 224.67 292.42 173.21 322.32 225.01 352.23 276.47 322.32" style="fill: rgb(69, 90, 100); transform-origin: 224.84px 322.325px;" id="eltuyexr24alr" class="animable"></polygon><polygon points="225.01 352.23 224.88 399.23 276.33 369.32 276.47 322.32 225.01 352.23" style="fill: rgb(69, 90, 100); transform-origin: 250.675px 360.775px;" id="el9mspmy148nl" class="animable"></polygon><polygon points="173.21 322.32 173.08 369.32 224.88 399.23 225.01 352.23 173.21 322.32" style="fill: rgb(69, 90, 100); transform-origin: 199.045px 360.775px;" id="eld7y4gupevxj" class="animable"></polygon><g id="el3vr4a5robb8"><polygon points="276.47 322.32 224.67 292.42 173.21 322.32 225.01 352.23 276.47 322.32" style="fill: rgb(255, 255, 255); opacity: 0.4; transform-origin: 224.84px 322.325px;" class="animable"></polygon></g><g id="elelxbzk5ypc9"><polygon points="225.01 352.23 224.88 399.23 276.33 369.32 276.47 322.32 225.01 352.23" style="fill: rgb(255, 255, 255); opacity: 0.1; transform-origin: 250.675px 360.775px;" class="animable"></polygon></g><g id="elpqhpb8h8of"><polygon points="173.21 322.32 173.08 369.32 224.88 399.23 225.01 352.23 173.21 322.32" style="fill: rgb(255, 255, 255); opacity: 0.3; transform-origin: 199.045px 360.775px;" class="animable"></polygon></g><g id="eled4vovsgs84"><polygon points="204.46 304.17 194.43 309.99 246.23 339.89 256.25 334.07 204.46 304.17" style="fill: rgb(255, 255, 255); opacity: 0.3; transform-origin: 225.34px 322.03px;" class="animable"></polygon></g><g id="eltq3ie68xgji"><polygon points="256.25 352.23 246.23 358.05 246.23 339.89 256.25 334.07 256.25 352.23" style="fill: rgb(255, 255, 255); opacity: 0.3; transform-origin: 251.24px 346.06px;" class="animable"></polygon></g><g id="ellrvogg01q6"><polygon points="256.25 380.96 246.23 386.78 246.23 374.79 256.25 368.97 256.25 380.96" style="fill: rgb(255, 255, 255); opacity: 0.3; transform-origin: 251.24px 377.875px;" class="animable"></polygon></g><g id="elfcu1x81syni"><polygon points="235.62 342.38 224.81 336.13 214.06 342.38 224.88 348.62 235.62 342.38" style="fill: rgb(255, 255, 255); opacity: 0.4; transform-origin: 224.84px 342.375px;" class="animable"></polygon></g></g><g id="freepik--Character--inject-144" class="animable" style="transform-origin: 334.96px 219.87px;"><path d="M313.86,351.66a13.68,13.68,0,0,0,10.26,3.77A31,31,0,0,0,335,352.69c3.47-1.42,7.82-5.42,11.57-5.34a91,91,0,0,0,11-.75A56.9,56.9,0,0,0,356,331.74l-17.51-.46c-4.73,6.47-13.92,11.86-20.88,13.88a6.14,6.14,0,0,0-4.32,4.61.37.37,0,0,1,0,.11A7.43,7.43,0,0,0,313.86,351.66Z" style="fill: rgb(69, 90, 100); transform-origin: 335.44px 343.367px;" id="el883jkqni9eo" class="animable"></path><path d="M346.54,347.35c-3.75-.08-8.1,3.92-11.57,5.34a31,31,0,0,1-10.85,2.74,13.68,13.68,0,0,1-10.26-3.77,7.43,7.43,0,0,1-.61-1.78.37.37,0,0,0,0-.11,5.72,5.72,0,0,0,0,2.33,7.43,7.43,0,0,0,.61,1.78,13.64,13.64,0,0,0,10.26,3.77A31,31,0,0,0,335,354.92c3.47-1.43,7.82-5.42,11.57-5.35a80.74,80.74,0,0,0,10.8-.62c.09-.78.14-1.57.17-2.35A91,91,0,0,1,346.54,347.35Z" style="fill: rgb(38, 50, 56); transform-origin: 335.335px 352.137px;" id="elf0nbj0nk42b" class="animable"></path><path d="M444.58,368a28,28,0,0,1-.57,5.7A13.21,13.21,0,0,1,438.8,382c-2.41,1.58-5.39,2-8.28,2.2a18.4,18.4,0,0,1-7.57-.78,8.65,8.65,0,0,1-4.44-3.62s0,.06,0,.1a8,8,0,0,0,5.1,5.31,18.44,18.44,0,0,0,7.58.78c2.88-.18,5.86-.62,8.28-2.2a13.25,13.25,0,0,0,5.21-8.32,27.21,27.21,0,0,0,.56-5.7,9.59,9.59,0,0,1,3.06-7,19,19,0,0,0,1.33-1.37,3.39,3.39,0,0,0,.81-2.49c0-.36-.06-.7-.1-1-.69.8-2.32,2.72-2.73,3.11A9.64,9.64,0,0,0,444.58,368Z" style="fill: rgb(38, 50, 56); transform-origin: 434.481px 372.001px;" id="el980ij0fmule" class="animable"></path><path d="M430.2,348.13a20.75,20.75,0,0,1-1.46,11.55,44.09,44.09,0,0,1-6.12,10.06,30.17,30.17,0,0,0-3.2,4.67,8.39,8.39,0,0,0-.91,5.39,8.65,8.65,0,0,0,4.44,3.62,18.4,18.4,0,0,0,7.57.78c2.89-.17,5.87-.62,8.28-2.2a13.21,13.21,0,0,0,5.21-8.31,28,28,0,0,0,.57-5.7,9.64,9.64,0,0,1,3.05-7c.41-.39,2-2.31,2.73-3.11a21.13,21.13,0,0,0-2.82-8.07Z" style="fill: rgb(69, 90, 100); transform-origin: 434.378px 366.216px;" id="elm3qlp30i83" class="animable"></path><path d="M365.92,184.66s-34.79,61.6-34.4,77.78,4.16,69.79,4.16,69.79c9.06,5.29,22.16,1.34,22.16,1.34,1.06-51,8.23-52.8,5-71.48,8.6-15,26.77-38.91,26.77-38.91,3.32,28.6,8,51.89,10.19,62.21a49.4,49.4,0,0,0,3.61,10.7L428.6,350c8.86,4.63,20,0,20,0-7-43.28-5.69-41.86-19.71-65.76-.24-45.08-2.34-98.75-2.34-98.75Z" style="fill: rgb(55, 71, 79); transform-origin: 390.058px 268.359px;" id="elu596k1ewwb" class="animable"></path><g id="elarsygy889"><path d="M376.66,210.17c.85,6.59,7.33,11.42,7.33,11.42C374.71,233,369,246.07,367.9,253.81c9.17-14.18,21.67-30.63,21.67-30.63-.48-6.21-1-9-1-9C384,214.63,378,211.45,376.66,210.17Z" style="opacity: 0.3; transform-origin: 378.735px 231.99px;" class="animable"></path></g><path d="M345.6,115.76c-9.44-.54-11.91,4.39-17.87,9.95s-17.18,16.36-17.18,16.36A22.43,22.43,0,0,0,323,159.66l20.78-15.33Z" style="fill: rgb(0, 22, 255); transform-origin: 328.075px 137.69px;" id="elysqp94ygml" class="animable"></path><g id="el3t5cedto645"><path d="M345.6,115.76c-9.44-.54-11.91,4.39-17.87,9.95s-17.18,16.36-17.18,16.36A22.43,22.43,0,0,0,323,159.66l20.78-15.33Z" style="opacity: 0.4; transform-origin: 328.075px 137.69px;" class="animable"></path></g><path d="M420.7,196.92c-12.42,4.33-36.93,9.78-57.16-4.61a7.14,7.14,0,0,1-2.69-7.89c.81-2.64,1-2.73-1.92-14.6-2.85-11.6-20.2-29.4-20.82-35.57s.21-16.87,7.49-18.49c13.5-2.86,38.88,0,38.88,0l13.38,5.55c14.06,17.24,26.35,46.54,29.92,63.1A10.84,10.84,0,0,1,420.7,196.92Z" style="fill: rgb(0, 22, 255); transform-origin: 382.981px 158.064px;" id="elj602h1tpgsb" class="animable"></path><g id="elljw1y5t6r5p"><path d="M420.7,196.92c-12.42,4.33-36.93,9.78-57.16-4.61a7.14,7.14,0,0,1-2.69-7.89c.81-2.64,1-2.73-1.92-14.6-2.85-11.6-20.2-29.4-20.82-35.57s.21-16.87,7.49-18.49c13.5-2.86,38.88,0,38.88,0l13.38,5.55c14.06,17.24,26.35,46.54,29.92,63.1A10.84,10.84,0,0,1,420.7,196.92Z" style="opacity: 0.3; transform-origin: 382.981px 158.064px;" class="animable"></path></g><path d="M327.27,93.57c-2.87-2.06-2.49-5.18-3.22-8.63s.38-7.88,2.17-10.92c2-10.69,39.86-9.42,40.2-1.58,1.71-.77,2.73,6.81,2.87,8.68.53,7.16,1.73,13.11-.52,19.88-1.17,3.5-2.85,7.21-6.17,8.83Z" style="fill: rgb(38, 50, 56); transform-origin: 346.955px 88.0554px;" id="el8wh9hnaqoc" class="animable"></path><path d="M372.84,109.83c-2.39-.89-7.59-1.12-7.59-1.12l4.53,7.05Z" style="fill: rgb(0, 22, 255); transform-origin: 369.045px 112.235px;" id="elqrx8m2n0ax" class="animable"></path><g id="eluqab5traz5"><path d="M372.84,109.83c-2.39-.89-7.59-1.12-7.59-1.12l4.53,7.05Z" style="opacity: 0.7; transform-origin: 369.045px 112.235px;" class="animable"></path></g><path d="M356.27,113.42a29.09,29.09,0,0,0-8.49,5.24,27.35,27.35,0,0,1-1.65,7.4,23.26,23.26,0,0,0,5.77-3.44,9.2,9.2,0,0,0,4.3,2.49,48.78,48.78,0,0,0,.76-5.79A17.59,17.59,0,0,0,356.27,113.42Z" style="fill: rgb(0, 22, 255); transform-origin: 351.557px 119.74px;" id="elxyo6j3qdbse" class="animable"></path><g id="eliu54souonjr"><path d="M356.27,113.42a29.09,29.09,0,0,0-8.49,5.24,27.35,27.35,0,0,1-1.65,7.4,23.26,23.26,0,0,0,5.77-3.44,9.2,9.2,0,0,0,4.3,2.49,48.78,48.78,0,0,0,.76-5.79A17.59,17.59,0,0,0,356.27,113.42Z" style="opacity: 0.4; transform-origin: 351.557px 119.74px;" class="animable"></path></g><g id="elacis69fuk8e"><path d="M349,124.65a22.05,22.05,0,0,0,2.95-2,16.23,16.23,0,0,1-2.31-2.88A13.21,13.21,0,0,1,349,124.65Z" style="opacity: 0.4; transform-origin: 350.475px 122.21px;" class="animable"></path></g><path d="M345.32,108.61s9.05,8.09,8.15,11.46c-.35,1.3-.6,4,3,5.34,4.82,1.88,12.11-2.76,15.08-6.9a4.81,4.81,0,0,0,1.33-2.75l-8.39-19.63Z" style="fill: rgb(255, 168, 167); transform-origin: 359.1px 110.985px;" id="el5ydqy4kwh6k" class="animable"></path><path d="M362.89,106.27a20.25,20.25,0,0,0-.13-9l-17.44,11.37s5.18,4.63,7.31,8.34a14.77,14.77,0,0,0,4.52-2.18A14.94,14.94,0,0,0,362.89,106.27Z" style="fill: rgb(242, 143, 143); transform-origin: 354.327px 107.125px;" id="el6f12ypz1f98" class="animable"></path><path d="M357.12,125.63c1.7-1.37,3.27-6.23,3.27-6.23a38.82,38.82,0,0,0,12.45-9.57l3,5.18c-1.19,6-10,15.31-10,15.31l-2.5-5.49A6.33,6.33,0,0,1,357.12,125.63Z" style="fill: rgb(0, 22, 255); transform-origin: 366.48px 120.075px;" id="elrl51njtgphl" class="animable"></path><g id="eleiw41crsz6e"><path d="M357.12,125.63c1.7-1.37,3.27-6.23,3.27-6.23a38.82,38.82,0,0,0,12.45-9.57l3,5.18c-1.19,6-10,15.31-10,15.31l-2.5-5.49A6.33,6.33,0,0,1,357.12,125.63Z" style="opacity: 0.4; transform-origin: 366.48px 120.075px;" class="animable"></path></g><g id="el6wq531b49fb"><path d="M359.08,126.08a5.58,5.58,0,0,0,4.27-1.25l-1.59-3.48A12.6,12.6,0,0,1,359.08,126.08Z" style="opacity: 0.4; transform-origin: 361.215px 123.737px;" class="animable"></path></g><polygon points="304.08 96.27 275.28 113.01 275.28 113.01 270.7 115.67 230.77 138.87 230.58 205.83 304.37 248.44 377.68 205.83 377.87 138.87 304.08 96.27" style="fill: rgb(0, 22, 255); transform-origin: 304.225px 172.355px;" id="elhmj7ckr32lu" class="animable"></polygon><polygon points="377.87 138.87 304.08 96.27 230.77 138.87 304.56 181.48 377.87 138.87" style="fill: rgb(0, 22, 255); transform-origin: 304.32px 138.875px;" id="elznzfrwwd96r" class="animable"></polygon><polygon points="304.56 181.48 304.37 248.44 377.68 205.83 377.87 138.87 304.56 181.48" style="fill: rgb(0, 22, 255); transform-origin: 341.12px 193.655px;" id="elz6gn4bcnfjq" class="animable"></polygon><polygon points="230.77 138.87 230.58 205.83 304.37 248.44 304.56 181.48 230.77 138.87" style="fill: rgb(0, 22, 255); transform-origin: 267.57px 193.655px;" id="el7mwegunr4gq" class="animable"></polygon><g id="elqlf4rz7jm5c"><polygon points="377.87 138.87 304.08 96.27 230.77 138.87 304.56 181.48 377.87 138.87" style="fill: rgb(255, 255, 255); opacity: 0.4; transform-origin: 304.32px 138.875px;" class="animable"></polygon></g><g id="el47264k79e32"><polygon points="304.56 181.48 304.37 248.44 377.68 205.83 377.87 138.87 304.56 181.48" style="fill: rgb(255, 255, 255); opacity: 0.1; transform-origin: 341.12px 193.655px;" class="animable"></polygon></g><g id="el13mz2jr2xrlg"><polygon points="230.77 138.87 230.58 205.83 304.37 248.44 304.56 181.48 230.77 138.87" style="fill: rgb(255, 255, 255); opacity: 0.3; transform-origin: 267.57px 193.655px;" class="animable"></polygon></g><g id="el1b9wx2w06ru"><polygon points="275.28 113.01 261 121.3 334.79 163.91 349.07 155.61 275.28 113.01" style="fill: rgb(255, 255, 255); opacity: 0.3; transform-origin: 305.035px 138.46px;" class="animable"></polygon></g><g id="eld51ebijt1v"><polygon points="349.07 181.48 334.79 189.77 334.79 163.91 349.07 155.61 349.07 181.48" style="fill: rgb(255, 255, 255); opacity: 0.3; transform-origin: 341.93px 172.69px;" class="animable"></polygon></g><g id="el3fqmj77lfgx"><polygon points="349.07 222.46 334.79 230.76 334.79 213.63 349.07 205.33 349.07 222.46" style="fill: rgb(255, 255, 255); opacity: 0.3; transform-origin: 341.93px 218.045px;" class="animable"></polygon></g><g id="elfby7fkjpo09"><polygon points="319.6 167.47 304.51 158.76 289.52 167.47 304.61 176.18 319.6 167.47" style="fill: rgb(255, 255, 255); opacity: 0.4; transform-origin: 304.56px 167.47px;" class="animable"></polygon></g><path d="M377.81,161.13l-.37,21.17c-9,10.28-25.16,30.91-25.16,30.91-4.3-2.39-9.68.37-11.88-1.65a2.1,2.1,0,0,0-2.56.27,2.37,2.37,0,0,0-.53,2.4,3.55,3.55,0,0,0,1.66,1.92,7.24,7.24,0,0,0,2.46.79,13,13,0,0,1,2.33.47,2.76,2.76,0,0,1,1.71,1.56,37.27,37.27,0,0,1-4.43,8.16l-4,2.29c1.49,1.19,3.08,2.52,5,2.55a4.46,4.46,0,0,0,4-2.53c1.2,1,3.28.93,4.78.55a10.24,10.24,0,0,0,4-2.27,21.54,21.54,0,0,0,6.69-10.28l28.57-18.81A19.09,19.09,0,0,0,398.61,185L401,165.22Z" style="fill: rgb(255, 168, 167); transform-origin: 369.02px 196.55px;" id="elcqdqv7y669u" class="animable"></path><path d="M384.48,115.76c-8.14,13.9-8.14,37.25-8.62,52,11.32,10.3,26.57,4.23,26.57,4.23C407.87,130.3,408.79,117,384.48,115.76Z" style="fill: rgb(0, 22, 255); transform-origin: 390.729px 144.763px;" id="elr2dya7nr2w9" class="animable"></path><g id="eldz3xlqvnpem"><path d="M384.48,115.76c-8.14,13.9-8.14,37.25-8.62,52,11.32,10.3,26.57,4.23,26.57,4.23C407.87,130.3,408.79,117,384.48,115.76Z" style="opacity: 0.4; transform-origin: 390.729px 144.763px;" class="animable"></path></g><g id="el8di2169qk3v"><path d="M376.06,161.13c-.07,2.35-.13,4.6-.2,6.67,11.32,10.3,26.57,4.23,26.57,4.23.29-2.24.57-4.37.83-6.45C399.3,166.5,385.66,168.88,376.06,161.13Z" style="fill: rgb(255, 255, 255); opacity: 0.2; transform-origin: 389.56px 167.468px;" class="animable"></path></g><path d="M326.3,76.32a74.8,74.8,0,0,0,1.88,29,23,23,0,0,0,2.3,6,9.67,9.67,0,0,0,4.71,4.18c2.46.92,5.2.47,7.79,0,4.74-.84,9.6-1.72,13.71-4.21s7.38-7,7-11.78a8.23,8.23,0,0,0,7.87.43,8.36,8.36,0,0,0,4.31-6.67c.18-2.68-1.37-5.67-4-6.2a5.74,5.74,0,0,0-4.58,1.34,17.11,17.11,0,0,0-3.2,3.73,5.62,5.62,0,0,1-1.59,1.7,1.92,1.92,0,0,1-2.2,0,2.89,2.89,0,0,1-.62-2.4l.27-6.07a2.42,2.42,0,0,0-1.34-2.27A5.93,5.93,0,0,1,355.85,80a12.57,12.57,0,0,1-.76-3.65A1.5,1.5,0,0,0,353,75C344.88,78.33,334.71,78.48,326.3,76.32Z" style="fill: rgb(255, 168, 167); transform-origin: 350.773px 95.4566px;" id="eledee5amyplu" class="animable"></path><polygon points="339.67 91.05 334.2 100.25 340.72 101.48 339.67 91.05" style="fill: rgb(242, 143, 143); transform-origin: 337.46px 96.265px;" id="elyx4wirmtws9" class="animable"></polygon><path d="M338.69,109l6.69-1.82A4.09,4.09,0,0,0,341,105C339.35,105.37,338.54,107.32,338.69,109Z" style="fill: rgb(242, 143, 143); transform-origin: 342.026px 106.967px;" id="elacxr3o8p89c" class="animable"></path><g id="elw8092xlbb2"><path d="M338.69,109l6.69-1.82A4.09,4.09,0,0,0,341,105C339.35,105.37,338.54,107.32,338.69,109Z" style="opacity: 0.3; transform-origin: 342.026px 106.967px;" class="animable"></path></g><path d="M333.12,86.73l-4.78-1.59A2.67,2.67,0,0,1,331.17,84,3.16,3.16,0,0,1,333.12,86.73Z" style="fill: rgb(38, 50, 56); transform-origin: 330.73px 85.3313px;" id="el2md9ou0c2b5" class="animable"></path><path d="M344.08,85.8l4.76-1.67A2.67,2.67,0,0,0,346,83.06,3.17,3.17,0,0,0,344.08,85.8Z" style="fill: rgb(38, 50, 56); transform-origin: 346.46px 84.3904px;" id="elna3i4un98vk" class="animable"></path><path d="M343.87,105.53c-.7.15-2.6,1-2.74,2.8l4.25-1.15A3.58,3.58,0,0,0,343.87,105.53Z" style="fill: rgb(242, 143, 143); transform-origin: 343.255px 106.93px;" id="elcq0jh8r46w9" class="animable"></path><path d="M347.65,89.8a8.5,8.5,0,0,1,1.07-.6,2.47,2.47,0,0,0-2.6.4,2.53,2.53,0,0,0-.74,2.56,8.42,8.42,0,0,1,4.92-1.43A2.84,2.84,0,0,0,347.65,89.8Z" style="fill: rgb(38, 50, 56); transform-origin: 347.793px 90.5782px;" id="elswr3c4oorw" class="animable"></path><path d="M330.86,90.48a8.43,8.43,0,0,0-1.06-.6,2.47,2.47,0,0,1,2.6.4,2.52,2.52,0,0,1,.73,2.56,8.47,8.47,0,0,0-4.91-1.44A2.85,2.85,0,0,1,330.86,90.48Z" style="fill: rgb(38, 50, 56); transform-origin: 330.724px 91.2582px;" id="elo65g66r4iu" class="animable"></path><path d="M327.57,70.48l3.26-8.55a12.22,12.22,0,0,1,9.55-7.76c8.16-1.22,17.65-.42,24.42,3.62a12,12,0,0,1,5.74,10,42,42,0,0,1-1.31,12.67c-3.15-1.64-9.32-3.89-9.32-3.89Z" style="fill: rgb(69, 90, 100); transform-origin: 349.08px 67.0535px;" id="elo39duygcarr" class="animable"></path><path d="M359.91,76.55c-5,2.52-10.31,5.09-15.94,5-6.19-.06-12.12-3.32-18.28-2.75-1.49.14-9.14,2.75-9.84-.93-.22-1.21,1.95-3.06,2.4-3.37,2.76-1.93,6.14-3,9.32-4.06C337.82,66.91,350,72.19,359.91,76.55Z" style="fill: rgb(0, 22, 255); transform-origin: 337.872px 75.4182px;" id="elnrdcng8cbol" class="animable"></path><g id="els1dr72czrq"><path d="M359.91,76.55c-5,2.52-10.31,5.09-15.94,5-6.19-.06-12.12-3.32-18.28-2.75-1.49.14-9.14,2.75-9.84-.93-.22-1.21,1.95-3.06,2.4-3.37,2.76-1.93,6.14-3,9.32-4.06C337.82,66.91,350,72.19,359.91,76.55Z" style="opacity: 0.3; transform-origin: 337.872px 75.4182px;" class="animable"></path></g><g id="elradehw8uvur"><path d="M343.5,79.34c-3.26-.52-6.41-1.58-9.62-2.36a23.34,23.34,0,0,0-9.82-.67,28.75,28.75,0,0,1-4.74.92,5.16,5.16,0,0,1-3-.78,2.12,2.12,0,0,0-.51,1.46c.7,3.68,8.35,1.07,9.84.93,6.16-.57,12.09,2.69,18.28,2.75a27.44,27.44,0,0,0,11.35-2.85A29.27,29.27,0,0,1,343.5,79.34Z" style="fill: rgb(255, 255, 255); opacity: 0.2; transform-origin: 335.544px 78.8287px;" class="animable"></path></g><path d="M322.13,291.93a.53.53,0,0,1-.25-.05,6.8,6.8,0,0,1-3.39-8.31,12.38,12.38,0,0,1,.74-1.56c.57-1.09,1.11-2.12.85-3.12a5.09,5.09,0,0,0-1.5-2.07c-.89-.89-1.89-1.9-1.78-3.33a4.45,4.45,0,0,1,1.77-2.8A4.9,4.9,0,0,0,320,269c.28-.8.06-1.78-.71-3.11l-.25-.43a7.18,7.18,0,0,1-1.27-3.33,3.2,3.2,0,0,1,1.11-2.5,2.16,2.16,0,0,1,1.87-.51.6.6,0,0,1,.46.72.59.59,0,0,1-.71.45,1,1,0,0,0-.86.25,2.07,2.07,0,0,0-.68,1.55,6.22,6.22,0,0,0,1.11,2.76l.26.44a5.09,5.09,0,0,1,.8,4.11,5.86,5.86,0,0,1-1.7,2.2c-.72.68-1.34,1.26-1.4,2s.63,1.59,1.44,2.4a6,6,0,0,1,1.81,2.61c.37,1.45-.3,2.73-.95,4a13,13,0,0,0-.68,1.42,5.62,5.62,0,0,0,2.77,6.8.6.6,0,0,1-.25,1.14Z" style="fill: rgb(0, 22, 255); transform-origin: 319.775px 275.524px;" id="elxyvgi0y52xl" class="animable"></path><path d="M313.66,281.86a.6.6,0,0,1-.47-.22.61.61,0,0,1,.09-.84,2.6,2.6,0,0,0,.82-2.21,7.24,7.24,0,0,0-.85-2.64l-.22-.45a11.79,11.79,0,0,1-1-2.65,4.15,4.15,0,0,1,.67-3.57,5.76,5.76,0,0,1,1.13-1,3.22,3.22,0,0,0,1.08-1.06c.4-.81-.09-1.86-.67-2.88a.6.6,0,1,1,1-.6c.47.82,1.45,2.51.72,4a4.26,4.26,0,0,1-1.46,1.49,5.46,5.46,0,0,0-.91.78,3,3,0,0,0-.42,2.55,10.56,10.56,0,0,0,.95,2.38l.22.46a8.28,8.28,0,0,1,1,3.08,3.77,3.77,0,0,1-1.25,3.22A.62.62,0,0,1,313.66,281.86Z" style="fill: rgb(0, 22, 255); transform-origin: 314.052px 272.589px;" id="el2eq8suigfct" class="animable"></path><path d="M365.12,307.89a.6.6,0,0,1-.08-1.19,2.9,2.9,0,0,0,2.14-2.52,10.3,10.3,0,0,0-.28-3.5l-.11-.56a7.88,7.88,0,0,1,.18-4.58,9.46,9.46,0,0,1,2.06-2.69c1-1,1.93-2,1.91-3.2a5.21,5.21,0,0,0-1.22-2.69,4.43,4.43,0,0,1-.4-6.1,10.44,10.44,0,0,0,.55-1,5.22,5.22,0,0,0-1.58-6.22.59.59,0,0,1-.14-.83.61.61,0,0,1,.84-.14,6.36,6.36,0,0,1,2,7.7c-.18.37-.39.72-.61,1.08a4.67,4.67,0,0,0-.84,2,4.73,4.73,0,0,0,1.2,2.8,6.17,6.17,0,0,1,1.44,3.35c0,1.71-1.13,2.91-2.26,4.06a8.54,8.54,0,0,0-1.81,2.33,6.72,6.72,0,0,0-.1,3.88l.1.55a11.19,11.19,0,0,1,.29,3.92,4,4,0,0,1-3.17,3.51Z" style="fill: rgb(0, 22, 255); transform-origin: 368.363px 290.225px;" id="elwj8ftzdmex8" class="animable"></path><path d="M371.07,303.46a.59.59,0,0,1-.48-.25.58.58,0,0,1,.13-.83,2.76,2.76,0,0,0,.61-2.49l-.05-.44a5.42,5.42,0,0,1,.23-3.15,5.23,5.23,0,0,1,2.37-2.07A5.58,5.58,0,0,0,375.6,293c.95-1.21.51-3-.21-4.37-.31-.57-.68-1.11-1.07-1.69a13.87,13.87,0,0,1-1.67-3c-.71-1.94-.3-4.49,1.6-5.42a.6.6,0,0,1,.52,1.08c-1.27.62-1.51,2.52-1,3.93a12.71,12.71,0,0,0,1.54,2.71,20.11,20.11,0,0,1,1.13,1.79c.91,1.65,1.41,4,.11,5.67a6.6,6.6,0,0,1-2.08,1.58,4.23,4.23,0,0,0-1.88,1.56,4.32,4.32,0,0,0-.12,2.47l0,.45c.19,1.68-.19,2.92-1.1,3.59A.57.57,0,0,1,371.07,303.46Z" style="fill: rgb(0, 22, 255); transform-origin: 373.905px 290.966px;" id="el2m7vatvha1f" class="animable"></path><path d="M405.34,318.42a2.56,2.56,0,0,1-1.58-.56,5.19,5.19,0,0,1-1.75-3.38c-.05-.37-.08-.76-.11-1.14A5.57,5.57,0,0,0,401,310a5.74,5.74,0,0,0-1.89-1.18,5.25,5.25,0,0,1-2.6-2c-.8-1.38-.35-2.85.08-4.28a6.41,6.41,0,0,0,.44-2.91,5.84,5.84,0,0,0-1.73-2.66c-.33-.36-.66-.71-1-1.08a4.76,4.76,0,0,1-1-3.56,2.41,2.41,0,0,1,1.14-1.69.6.6,0,1,1,.62,1,1.23,1.23,0,0,0-.58.89,3.57,3.57,0,0,0,.79,2.59c.28.35.58.68.89,1a6.7,6.7,0,0,1,2,3.25,7.28,7.28,0,0,1-.47,3.48c-.39,1.29-.73,2.4-.18,3.33a4.37,4.37,0,0,0,2.06,1.47,5.07,5.07,0,0,1,3.53,5.54c0,.36,0,.73.1,1.09a4,4,0,0,0,1.29,2.57,1.33,1.33,0,0,0,1.05.29.61.61,0,0,1,.68.51.6.6,0,0,1-.5.68A2.43,2.43,0,0,1,405.34,318.42Z" style="fill: rgb(0, 22, 255); transform-origin: 399.745px 304.449px;" id="el4az3pr3ogya" class="animable"></path><path d="M397.76,315.29a.58.58,0,0,1-.28-.07.6.6,0,0,1-.24-.81,2.57,2.57,0,0,0-.39-2.54,9.31,9.31,0,0,0-1.79-1.75l-.52-.45a6.18,6.18,0,0,1-2.15-2.95,6.62,6.62,0,0,1,.4-3.8l.1-.3a7.45,7.45,0,0,0,.58-2.89,2.07,2.07,0,0,0-1.5-2,.59.59,0,0,1-.52-.66.59.59,0,0,1,.66-.52,3.25,3.25,0,0,1,2.56,3.08A8.49,8.49,0,0,1,394,303l-.1.3a5.62,5.62,0,0,0-.38,3.1,5.29,5.29,0,0,0,1.77,2.37l.52.42a10.52,10.52,0,0,1,2,2,3.69,3.69,0,0,1,.46,3.78A.6.6,0,0,1,397.76,315.29Z" style="fill: rgb(0, 22, 255); transform-origin: 395.019px 305.918px;" id="el2tayp591yvp" class="animable"></path><path d="M449.1,315.42a.6.6,0,0,1-.08-1.19,2.25,2.25,0,0,0,1.51-1,3.89,3.89,0,0,0,.6-2.9,11,11,0,0,0-2.5-4.4l-.33-.41c-1.25-1.61-2.52-3.54-2.44-5.7a10.58,10.58,0,0,1,.81-3.23c.52-1.4,1-2.72.5-3.91a5.55,5.55,0,0,0-2.32-2.19,6,6,0,0,1-3.41-6.37,6.36,6.36,0,0,0-.73-3.49,2.2,2.2,0,0,0-1.52-.93,1.23,1.23,0,0,0-1,.27.6.6,0,0,1-.84,0,.61.61,0,0,1,0-.85,2.44,2.44,0,0,1,1.95-.57A3.47,3.47,0,0,1,441.7,280a7.41,7.41,0,0,1,.94,4.15,4.86,4.86,0,0,0,2.86,5.38,6.48,6.48,0,0,1,2.77,2.74c.69,1.62.1,3.23-.47,4.78a9.6,9.6,0,0,0-.74,2.86c-.07,1.77,1,3.41,2.19,4.92l.31.41a11.87,11.87,0,0,1,2.75,4.9,5.09,5.09,0,0,1-.81,3.84,3.38,3.38,0,0,1-2.32,1.45Z" style="fill: rgb(0, 22, 255); transform-origin: 444.789px 296.977px;" id="eliwit1rkkbj" class="animable"></path><path d="M453.39,308.21a.69.69,0,0,1-.2,0,.6.6,0,0,1-.37-.76c.35-1-.44-2.18-.94-2.77-.17-.21-.35-.42-.54-.62a7.29,7.29,0,0,1-1.69-2.55c-.55-1.7.1-3.35.73-4.93a7.66,7.66,0,0,0,.83-3.79,6.25,6.25,0,0,0-2.12-3.32c-.23-.22-.47-.43-.71-.64a12.63,12.63,0,0,1-2.45-2.65,4.41,4.41,0,0,1-.16-4.83.6.6,0,0,1,.84-.13.6.6,0,0,1,.13.83,3.23,3.23,0,0,0,.2,3.49,11.65,11.65,0,0,0,2.23,2.39l.73.67a7.28,7.28,0,0,1,2.5,4,8.64,8.64,0,0,1-.91,4.4c-.58,1.45-1.12,2.83-.7,4.12a6.23,6.23,0,0,0,1.45,2.12c.19.22.38.43.56.65,1.14,1.37,1.55,2.76,1.15,3.93A.59.59,0,0,1,453.39,308.21Z" style="fill: rgb(0, 22, 255); transform-origin: 449.613px 294.66px;" id="eluyzauyjl73" class="animable"></path><path d="M431.15,196.33a.59.59,0,0,1-.59-.49.6.6,0,0,1,.48-.7c1.48-.26,2.34-2,2.3-3.53a11.85,11.85,0,0,0-1.07-4c-.13-.33-.25-.66-.37-1-.56-1.5-1.2-3.73-.37-5.73a10.46,10.46,0,0,1,1.46-2.25c.85-1.08,1.58-2,1.41-3.1s-1.35-1.86-2.57-2.6-2.6-1.55-3.13-3a6,6,0,0,1,.24-3.75,8.21,8.21,0,0,0,.43-2.14,3.68,3.68,0,0,0-5.9-3,.57.57,0,0,1-.83-.11.6.6,0,0,1,.11-.84,4.87,4.87,0,0,1,7.82,4,9.59,9.59,0,0,1-.48,2.45,5,5,0,0,0-.26,3c.37,1,1.46,1.69,2.61,2.38,1.41.84,2.87,1.72,3.14,3.43s-.71,2.83-1.64,4a9.12,9.12,0,0,0-1.3,2c-.68,1.61-.11,3.54.38,4.85l.36,1a12.73,12.73,0,0,1,1.16,4.44c0,2-1.1,4.35-3.29,4.73Z" style="fill: rgb(0, 22, 255); transform-origin: 429.071px 177.732px;" id="elbtfgo91jkk" class="animable"></path><path d="M436.6,191a.78.78,0,0,1-.21,0,.6.6,0,0,1-.36-.77c.39-1.05-.17-2.19-.76-3.4a6.49,6.49,0,0,1-1-3.93,6.09,6.09,0,0,1,1.59-2.83,12.78,12.78,0,0,0,.88-1.17,5.25,5.25,0,0,0-.44-6,11.14,11.14,0,0,0-1.52-1.36,11.3,11.3,0,0,1-1.77-1.63,6.12,6.12,0,0,1-.41-7,.6.6,0,0,1,1,.65,4.92,4.92,0,0,0,.33,5.59,10,10,0,0,0,1.58,1.45A11.43,11.43,0,0,1,437.2,172a6.4,6.4,0,0,1,.55,7.43,12.42,12.42,0,0,1-1,1.29,5.19,5.19,0,0,0-1.33,2.27,5.55,5.55,0,0,0,.89,3.21c.68,1.38,1.38,2.8.82,4.33A.6.6,0,0,1,436.6,191Z" style="fill: rgb(0, 22, 255); transform-origin: 435.189px 176.849px;" id="ela7fm1e6yoyf" class="animable"></path><path d="M287.27,94.82a.64.64,0,0,1-.37-.13.6.6,0,0,1-.1-.84L289.86,90c.37-.47,1.23-1.57,2.44-1.35a2.58,2.58,0,0,1,1.56,1.21,2.5,2.5,0,0,0,.73.75,1.53,1.53,0,0,0,1.38-.25,7,7,0,0,0,.76-.59,8.14,8.14,0,0,1,.87-.68,4.65,4.65,0,0,1,7,2.62.6.6,0,0,1-1.15.33,3.45,3.45,0,0,0-5.2-2,6.18,6.18,0,0,0-.76.59,8.78,8.78,0,0,1-.89.69,2.59,2.59,0,0,1-2.55.31,3.2,3.2,0,0,1-1.15-1.1c-.28-.38-.53-.7-.82-.75-.46-.09-1,.48-1.3.91l-3.05,3.86A.58.58,0,0,1,287.27,94.82Z" style="fill: rgb(0, 22, 255); transform-origin: 295.642px 91.5807px;" id="elbelfdvth6v6" class="animable"></path><path d="M287.47,90.13a.64.64,0,0,1-.39-.14.6.6,0,0,1-.07-.84,11.59,11.59,0,0,1,2.54-2.44,4.33,4.33,0,0,1,3.73-.57,5.81,5.81,0,0,1,.9.45,5.77,5.77,0,0,0,.75.37,2.12,2.12,0,0,0,2.27-.64.6.6,0,0,1,.84-.08.59.59,0,0,1,.08.84,3.31,3.31,0,0,1-3.59,1,7.47,7.47,0,0,1-.94-.46,4.89,4.89,0,0,0-.72-.37,3.15,3.15,0,0,0-2.68.46,10.46,10.46,0,0,0-2.26,2.2A.6.6,0,0,1,287.47,90.13Z" style="fill: rgb(0, 22, 255); transform-origin: 292.565px 88.0388px;" id="elzcx3xhhbch" class="animable"></path><path d="M410.87,126.81a.39.39,0,0,1-.15,0,.59.59,0,0,1-.43-.72A11.55,11.55,0,0,0,403,112.41a.61.61,0,0,1-.36-.77.6.6,0,0,1,.76-.36,12.74,12.74,0,0,1,8,15.08A.6.6,0,0,1,410.87,126.81Z" style="fill: rgb(0, 22, 255); transform-origin: 407.196px 119.032px;" id="elybnro8u7xg" class="animable"></path><path d="M413.81,121.68h-.11a.61.61,0,0,1-.48-.7,7.69,7.69,0,0,0-2.53-7.12.59.59,0,0,1-.07-.84.6.6,0,0,1,.84-.07,8.78,8.78,0,0,1,2.94,8.25A.61.61,0,0,1,413.81,121.68Z" style="fill: rgb(0, 22, 255); transform-origin: 412.509px 117.245px;" id="eliouvueiemja" class="animable"></path><path d="M224.2,149.2a.59.59,0,0,1-.58-.45A27,27,0,0,1,230.26,124a.59.59,0,0,1,.84,0,.6.6,0,0,1,0,.85,25.8,25.8,0,0,0-6.34,23.67.61.61,0,0,1-.44.73Z" style="fill: rgb(0, 22, 255); transform-origin: 227.086px 136.537px;" id="elz2nc5mkyed9" class="animable"></path><path d="M219.12,140.55h0a.59.59,0,0,1-.57-.62A35.19,35.19,0,0,1,223,124.07a.6.6,0,1,1,1,.59,33.88,33.88,0,0,0-4.3,15.31A.6.6,0,0,1,219.12,140.55Z" style="fill: rgb(0, 22, 255); transform-origin: 221.363px 132.092px;" id="elxmpatzvjj" class="animable"></path><path d="M228.83,222.15a.58.58,0,0,1-.31-.08,17.12,17.12,0,0,1-7.71-19.37A.6.6,0,1,1,222,203a15.93,15.93,0,0,0,7.17,18,.59.59,0,0,1,.21.82A.59.59,0,0,1,228.83,222.15Z" style="fill: rgb(0, 22, 255); transform-origin: 224.815px 212.192px;" id="ele4s6sispuu" class="animable"></path><path d="M220.38,219a.59.59,0,0,1-.42-.18,14.24,14.24,0,0,1-4.09-11.21.6.6,0,0,1,1.19.11A13,13,0,0,0,220.81,218a.6.6,0,0,1-.43,1Z" style="fill: rgb(0, 22, 255); transform-origin: 218.392px 213.06px;" id="elpyl25dofw7" class="animable"></path></g><defs>     <filter id="active" height="200%">         <feMorphology in="SourceAlpha" result="DILATED" operator="dilate" radius="2"></feMorphology>                <feFlood flood-color="#32DFEC" flood-opacity="1" result="PINK"></feFlood>        <feComposite in="PINK" in2="DILATED" operator="in" result="OUTLINE"></feComposite>        <feMerge>            <feMergeNode in="OUTLINE"></feMergeNode>            <feMergeNode in="SourceGraphic"></feMergeNode>        </feMerge>    </filter>    <filter id="hover" height="200%">        <feMorphology in="SourceAlpha" result="DILATED" operator="dilate" radius="2"></feMorphology>                <feFlood flood-color="#ff0000" flood-opacity="0.5" result="PINK"></feFlood>        <feComposite in="PINK" in2="DILATED" operator="in" result="OUTLINE"></feComposite>        <feMerge>            <feMergeNode in="OUTLINE"></feMergeNode>            <feMergeNode in="SourceGraphic"></feMergeNode>        </feMerge>            <feColorMatrix type="matrix" values="0   0   0   0   0                0   1   0   0   0                0   0   0   0   0                0   0   0   1   0 "></feColorMatrix>    </filter></defs></svg>